<svg width="156" height="26" viewBox="0 0 156 26" fill="none" xmlns="http://www.w3.org/2000/svg">
<path d="M47.5461 17.0709L47.265 19.8256C46.8215 20.216 46.1094 20.4127 45.1224 20.4127C43.7451 20.4127 42.8612 19.8443 42.4677 18.7043C41.5307 19.8787 40.2721 20.4658 38.6917 20.4658C37.8578 20.4658 37.0926 20.2972 36.3962 19.9567C35.6997 19.6163 35.1406 19.1322 34.7252 18.5013C34.3098 17.8735 34.1006 17.1333 34.1006 16.2807C34.1006 14.9721 34.5941 13.9539 35.581 13.2324C36.5679 12.511 37.836 12.1487 39.382 12.1487C39.7911 12.1487 40.2377 12.1705 40.7218 12.2111C41.2059 12.2549 41.6026 12.308 41.9086 12.3767V11.6864C41.9086 10.9213 41.7119 10.3809 41.3215 10.0655C40.9311 9.75005 40.3533 9.59388 39.5881 9.59388C39.0259 9.59388 38.4512 9.69695 37.8672 9.89996C37.2831 10.103 36.7303 10.3684 36.2213 10.6901L34.6909 8.11348C35.4061 7.50133 36.2587 7.03284 37.255 6.71115C38.2513 6.38946 39.232 6.22705 40.2034 6.22705C42.1929 6.22705 43.6764 6.67055 44.6539 7.55442C45.6315 8.43829 46.1219 9.6907 46.1219 11.3054V16.1526C46.1219 16.7835 46.3436 17.0959 46.784 17.0959L47.5492 17.0709H47.5461ZM41.0279 17.0834C41.4277 16.8554 41.7462 16.5181 41.9836 16.0746V14.8503C41.7275 14.7659 41.4089 14.6941 41.0279 14.6316C40.6469 14.5723 40.2752 14.5442 39.9191 14.5442C39.3414 14.5442 38.876 14.6691 38.5293 14.9127C38.1795 15.1595 38.0077 15.528 38.0077 16.0215C38.0077 16.4806 38.1639 16.8304 38.4793 17.0678C38.7948 17.3051 39.1883 17.4238 39.6662 17.4238C40.1752 17.4238 40.6312 17.3082 41.031 17.0802L41.0279 17.0834Z" fill="black"/>
<path d="M61.0414 6.66113V20.0285H58.2086L57.4684 18.2951C57.0093 18.926 56.4471 19.4226 55.785 19.788C55.1229 20.1535 54.2796 20.3377 53.2583 20.3377C51.7279 20.3377 50.5411 19.9161 49.6978 19.0759C48.8545 18.2358 48.436 17.0833 48.436 15.6185V6.66113H52.593V14.6472C52.593 15.3437 52.7367 15.8372 53.0272 16.1276C53.3176 16.4181 53.733 16.5618 54.2765 16.5618C55.3477 16.5618 56.2066 15.9496 56.8531 14.7253V6.66113H61.0382H61.0414Z" fill="black"/>
<path d="M64.9206 19.5322C64.2585 18.9107 63.9243 17.9112 63.9243 16.5339V10.2593H62.0098V6.66139H63.9243V5.28405L65.7108 3.1665H68.1594V6.66139H71.4263V10.2593H68.1594V15.6438C68.1594 16.3403 68.4998 16.6901 69.1807 16.6901C69.7241 16.6901 70.2863 16.587 70.8641 16.384L71.8604 19.3448C70.7048 20.0944 69.3868 20.466 67.9064 20.466C66.579 20.466 65.5859 20.1568 64.9206 19.5353V19.5322Z" fill="black"/>
<path d="M82.3074 7.00473C83.3693 7.52319 84.2282 8.31336 84.8841 9.37838C85.5368 10.4403 85.8648 11.7645 85.8648 13.3449C85.8648 14.9252 85.5368 16.2495 84.8841 17.3114C84.2282 18.3733 83.3693 19.1666 82.3074 19.685C81.2455 20.2035 80.093 20.4627 78.85 20.4627C77.6069 20.4627 76.4514 20.2035 75.3801 19.685C74.3088 19.1666 73.4437 18.3764 72.7909 17.3114C72.1351 16.2495 71.8071 14.9252 71.8071 13.3449C71.8071 11.7645 72.1351 10.4403 72.7909 9.37838C73.4437 8.31649 74.3088 7.52319 75.3801 7.00473C76.4514 6.48628 77.6069 6.22705 78.85 6.22705C80.093 6.22705 81.2424 6.48628 82.3074 7.00473ZM76.8105 10.8057C76.3327 11.3929 76.0953 12.2393 76.0953 13.3449C76.0953 14.4505 76.3327 15.2969 76.8105 15.8841C77.2853 16.4712 77.9661 16.7648 78.85 16.7648C79.7339 16.7648 80.4116 16.4712 80.877 15.8841C81.3455 15.2969 81.5797 14.4505 81.5797 13.3449C81.5797 12.2393 81.3455 11.3929 80.877 10.8057C80.4085 10.2185 79.7339 9.92495 78.85 9.92495C77.9661 9.92495 77.2853 10.2185 76.8105 10.8057Z" fill="black"/>
<path d="M105.944 7.45135C106.759 8.26652 107.168 9.35652 107.168 10.7182V20.0317H102.858V11.3835C102.858 10.4153 102.408 9.92807 101.506 9.92807C101.031 9.92807 100.585 10.0717 100.166 10.3622C99.7506 10.6527 99.4039 11.1024 99.1322 11.7146V20.0317H94.8222V11.3585C94.8222 10.8838 94.7035 10.5246 94.4661 10.2872C94.2288 10.0499 93.8946 9.93119 93.4698 9.93119C92.9764 9.93119 92.5266 10.0811 92.1175 10.3778C91.7083 10.6745 91.3679 11.1211 91.0962 11.7177V20.0348H86.7861V6.66118H90.0499L90.4059 8.47265H90.509C91.3929 6.97662 92.7109 6.22705 94.463 6.22705C96.4369 6.22705 97.7705 7.00161 98.467 8.54761C99.4008 7.00161 100.813 6.22705 102.702 6.22705C104.045 6.22705 105.126 6.63619 105.944 7.45135Z" fill="black"/>
<path d="M117.603 16.9054C118.231 16.693 118.812 16.3994 119.337 16.0246L120.792 18.7543C119.327 19.8943 117.45 20.4627 115.155 20.4627C113.028 20.4627 111.319 19.8599 110.026 18.6512C108.733 17.4425 108.087 15.6904 108.087 13.3948C108.087 12.0175 108.368 10.7838 108.927 9.69695C109.489 8.61007 110.27 7.75743 111.276 7.14528C112.278 6.53313 113.437 6.22705 114.746 6.22705C116.054 6.22705 117.225 6.51126 118.15 7.08281C119.078 7.65124 119.765 8.41018 120.218 9.3534C120.667 10.2966 120.892 11.3304 120.892 12.4548C120.892 13.2543 120.823 13.9508 120.689 14.5473H112.294C112.65 16.3338 113.765 17.227 115.636 17.227C116.317 17.227 116.969 17.1209 117.6 16.9085L117.603 16.9054ZM113.125 9.94056C112.691 10.3591 112.406 11.0243 112.269 11.9425H117.013C116.997 11.0743 116.798 10.4215 116.413 9.97804C116.029 9.53454 115.498 9.31592 114.817 9.31592C114.137 9.31592 113.556 9.52517 113.122 9.94056H113.125Z" fill="black"/>
<path d="M123.981 19.5322C123.319 18.9107 122.984 17.9112 122.984 16.5339V10.2593H121.07V6.66139H122.984V5.28405L124.771 3.1665H127.219V6.66139H130.486V10.2593H127.219V15.6438C127.219 16.3403 127.56 16.6901 128.241 16.6901C128.784 16.6901 129.346 16.587 129.924 16.384L130.92 19.3448C129.765 20.0944 128.447 20.466 126.966 20.466C125.639 20.466 124.646 20.1568 123.981 19.5353V19.5322Z" fill="black"/>
<path d="M131.789 6.66137H135.027L135.664 8.65087H135.739C136.13 7.74825 136.586 7.12049 137.104 6.76132C137.623 6.40527 138.213 6.22412 138.878 6.22412C139.544 6.22412 140.187 6.37716 140.768 6.68324L140.028 10.4592C139.519 10.2375 139.075 10.1282 138.7 10.1282C138.104 10.1282 137.585 10.3374 137.145 10.7528C136.701 11.1682 136.336 11.8709 136.049 12.8578V20.0256H131.789V6.66137Z" fill="black"/>
<path d="M156 6.6083L150.975 20.897C150.412 22.5117 149.688 23.6923 148.795 24.4294C147.901 25.1665 146.768 25.5382 145.387 25.5382C144.588 25.5382 143.932 25.4913 143.423 25.3976C142.914 25.3039 142.351 25.1634 141.739 24.976L142.479 21.8371C143.229 22.0745 143.941 22.1932 144.622 22.1932C145.012 22.1932 145.375 22.0839 145.706 21.8621C146.037 21.6404 146.296 21.2999 146.483 20.8408L146.636 20.4567L141.227 6.60205H145.64L148.701 15.8374L151.456 6.60205H155.997L156 6.6083Z" fill="black"/>
<path fill-rule="evenodd" clip-rule="evenodd" d="M6.56275 0C7.97757 0 9.12692 1.11811 9.18001 2.52044C9.18001 2.55167 9.18001 2.58603 9.18001 2.62351C9.18001 4.01646 9.87337 4.78165 11.2601 4.91595H14.7768C16.1948 4.91595 17.3504 6.04031 17.3972 7.44888C17.3972 7.47699 17.3972 7.50823 17.3972 7.53633C17.3972 8.92929 18.0906 9.63826 19.4773 9.66637H22.8722C24.3151 9.66637 25.5769 10.7782 25.6144 12.218C25.6519 13.6578 24.4651 14.9071 22.994 14.9071H19.1525C17.7782 14.9071 16.5602 13.8921 16.4415 12.521C16.429 12.3648 16.429 12.2087 16.4415 12.0588C16.4353 11.9776 16.4321 11.8901 16.4321 11.7933C16.4321 11.0343 16.1729 10.544 15.6513 10.2629C15.492 10.1786 15.314 10.1442 15.1329 10.1505C15.0173 10.1536 14.883 10.1567 14.7768 10.1567H10.8353C9.38927 10.1567 8.21494 8.98239 8.21494 7.53633V7.41765L8.22118 7.31146C8.21494 7.23026 8.21181 7.13969 8.21181 7.04599C8.21181 5.98722 7.69961 5.38443 6.67519 5.24077H2.74305C1.30012 5.24077 0.0383425 4.13202 0.000863881 2.68909C-0.0366148 1.21181 1.15021 0 2.62125 0H6.56275Z" fill="#6F14E2"/>
<path d="M17.4004 17.7683C17.4004 17.737 17.4004 17.7089 17.4004 17.6808C17.3536 16.2754 16.198 15.1479 14.7801 15.1479H11.2633C9.87661 15.0136 9.18325 14.2484 9.18325 12.8554C9.18325 12.8211 9.18325 12.7867 9.18325 12.7524C9.13015 11.3532 7.97769 10.2319 6.56599 10.2319H2.62136C1.17531 10.2319 0.000976562 11.4063 0.000976562 12.8523C0.000976562 14.2984 1.17531 15.4727 2.62136 15.4727H6.68155C7.70597 15.6132 8.21817 16.216 8.21817 17.2748C8.21817 17.3716 8.2213 17.4591 8.22754 17.5403L8.2213 17.6465V17.7651C8.2213 19.2112 9.39251 20.3855 10.8386 20.3855H14.7801C14.9768 20.3855 15.1673 20.3637 15.3485 20.3231C17.4816 20.0576 17.4004 17.7651 17.4004 17.7651V17.7683Z" fill="#51D0B8"/>
<path d="M6.64429 20.5542H2.5841C1.18177 20.5542 0.0449219 21.6911 0.0449219 23.0934C0.0449219 24.4957 1.18177 25.6326 2.5841 25.6326H6.64741C8.04974 25.6326 9.18659 24.4957 9.18659 23.0934C9.18659 21.6911 8.04974 20.5542 6.64741 20.5542H6.64429Z" fill="#51D0B8"/>
</svg>
